<svg width="100%" height="100%" viewBox="0 0 250 60" fill="none" xmlns="http://www.w3.org/2000/svg">
<g clip-path="url(#clip0_48_518)">
<path d="M61.9184 12.7504H84.1626V17.8318H77.0721V29.9592H68.9828V17.8318H61.9184V12.7504Z" fill="white"/>
<path d="M101.481 12.7504H109.57V29.954H101.481V22.8766H95.4153V29.954H87.326V12.7504H95.4153V18.8272H101.481V12.7504Z" fill="white"/>
<path d="M132.928 24.5268C133.906 24.7625 134.821 24.8778 135.684 24.8778H139.726V29.9592H132.604C130.277 29.9592 126.585 28.4715 121.524 25.4959V29.9592H113.434V12.7556H129.613C132.405 12.7556 134.79 13.3476 136.766 14.5263C138.738 15.7102 139.726 17.1403 139.726 18.8167C139.726 20.1264 139.093 21.2998 137.838 22.3475C136.578 23.39 134.941 24.1182 132.928 24.532V24.5268ZM121.529 16.8051V20.8545H127.595C128.222 20.8545 128.891 20.7655 129.618 20.5926C130.967 20.2573 131.642 19.6706 131.642 18.8324C131.642 18.1671 131.182 17.638 130.267 17.2451C129.545 16.9517 128.782 16.8051 127.981 16.8051H121.534H121.529Z" fill="white"/>
<path d="M165.782 17.8318H151.627V19.8278H158.718V22.8819H151.627V24.8778H165.782V29.9592H143.538V12.7556H165.782V17.8371V17.8318Z" fill="white"/>
<path d="M184.099 29.9592L183.017 26.9366H177.066L176.01 29.9592H167.921L173.986 12.7556H186.118L192.183 29.9592H184.094H184.099ZM178.149 23.8824H181.96L180.057 18.4814L178.154 23.8824H178.149Z" fill="white"/>
<path d="M211.677 12.7504C214.061 12.7504 216.09 13.5885 217.774 15.2597C219.452 16.9308 220.294 18.9634 220.294 21.3522C220.294 23.741 219.452 25.7474 217.774 27.429C216.095 29.1106 214.061 29.954 211.677 29.954H194.003V12.7504H211.677ZM208.158 24.8778C209.156 24.8778 209.988 24.532 210.662 23.8458C211.337 23.1595 211.672 22.3266 211.672 21.3574C211.672 20.3883 211.332 19.5553 210.647 18.8691C209.962 18.1828 209.13 17.8371 208.158 17.8371H202.092V24.883H208.158V24.8778Z" fill="white"/>
<path d="M236.881 17.8318C236.546 17.8318 236.384 17.9995 236.384 18.3295C236.384 18.6019 236.551 18.78 236.881 18.8586C239.751 19.4244 241.9 20.0897 243.328 20.8493C245.106 21.808 245.995 22.9866 245.995 24.3958C245.995 25.936 245.205 27.2509 243.621 28.3353C242.036 29.4197 240.133 29.9592 237.905 29.9592H223.751V24.8778H232.839C233.189 24.8778 233.367 24.6997 233.367 24.3487C233.367 24.0972 233.189 23.9296 232.839 23.851C229.984 23.2852 227.845 22.6199 226.423 21.8603C224.645 20.9017 223.756 19.7125 223.756 18.2876C223.756 16.7632 224.545 15.4587 226.13 14.3796C227.714 13.2952 229.618 12.7556 231.845 12.7556H246V17.8371H236.886L236.881 17.8318Z" fill="white"/>
<path d="M81.4068 48.9965C82.3846 49.2323 83.2997 49.3475 84.1624 49.3475H88.2045V54.429H81.0826C78.7557 54.429 75.064 52.9412 70.0023 49.9657V54.429H61.9131V37.2253H78.0916C80.8839 37.2253 83.2683 37.8173 85.2449 38.996C87.2162 40.1747 88.2045 41.6101 88.2045 43.2864C88.2045 44.5961 87.5718 45.7695 86.3168 46.8173C85.0566 47.8597 83.4199 48.5879 81.4068 49.0018V48.9965ZM70.0076 41.2748V45.3242H76.0732C76.7007 45.3242 77.37 45.2352 78.0968 45.0623C79.4459 44.7323 80.1204 44.1403 80.1204 43.3021C80.1204 42.6368 79.6603 42.1077 78.7452 41.7148C78.0236 41.4215 77.2602 41.2748 76.4601 41.2748H70.0128H70.0076Z" fill="white"/>
<path d="M114.261 42.3016H100.106V44.2975H107.196V47.3516H100.106V49.3475H114.261V54.429H92.0164V37.2253H114.261V42.3068V42.3016Z" fill="white"/>
<path d="M132.578 54.4237L131.495 51.401H125.545L124.489 54.4237H116.399L122.465 37.2201H134.596L140.662 54.4237H132.573H132.578ZM126.627 48.3469H130.439L128.536 42.9459L126.632 48.3469H126.627Z" fill="white"/>
<path d="M150.571 49.3475H164.726V54.429H142.482V37.2253H150.571V49.3527V49.3475Z" fill="white"/>
<path d="M185.887 37.2201H193.977V54.4237H185.887V48.3469L180.815 54.4237L175.775 48.3469V54.4237H167.685V37.2201H175.775L180.784 43.2969L185.882 37.2201H185.887Z" fill="white"/>
<path d="M43.3479 13.4827C43.429 13.2461 43.4854 13.0378 43.503 12.9601C43.8344 11.4522 43.4396 9.86313 42.4491 8.66603L42.3645 8.56009C42.3645 8.56009 42.3469 8.53184 42.3363 8.51771C42.3998 8.46474 42.4597 8.40118 42.5126 8.33408C42.6853 8.12927 42.858 7.92093 43.0307 7.71611C43.1999 7.75142 43.3726 7.76555 43.5383 7.76555C44.2468 7.76555 44.8953 7.48305 45.3606 6.96748C45.8576 6.40954 46.0691 5.65737 45.9457 4.89815C45.8294 4.23427 45.4805 3.61629 44.92 3.11485C44.3173 2.5675 43.5771 2.26381 42.8439 2.26381C42.1107 2.26381 41.4833 2.54631 41.0216 3.05482C40.4365 3.70811 40.2779 4.58386 40.5246 5.42431L39.2592 5.16653C39.1393 5.14181 39.0195 5.12768 38.8961 5.12768C38.2335 5.12768 37.6202 5.52319 37.3276 6.12703C37.2183 6.36363 37.1584 6.61082 37.1549 6.86154C36.6614 6.9922 36.1997 7.20408 35.7943 7.48658C32.3894 5.73859 28.5967 4.81693 24.7582 4.81693C22.0688 4.81693 19.4322 5.25834 16.9049 6.12703C16.1577 5.50906 15.213 5.13121 14.1662 5.05706C13.9088 4.55208 13.4189 4.20249 12.8585 4.1248L11.163 3.88114C11.163 3.88114 10.8881 3.45739 10.8282 3.35851C11.1912 2.65225 11.2159 1.83653 10.8176 1.14087C10.4087 0.434609 9.64737 0.00732422 8.78027 0.00732422C8.28327 0.00732422 7.77218 0.152107 7.3069 0.416953C6.71826 0.759487 6.28471 1.23974 6.05913 1.81534C5.79477 2.47922 5.84411 3.20313 6.18954 3.80345C6.57727 4.48146 7.27166 4.89815 8.07531 4.94052C8.12818 5.04293 8.70977 6.18353 8.70977 6.18353C8.87896 6.50488 9.1398 6.75913 9.47113 6.91451C9.39358 7.00985 9.31604 7.1052 9.24554 7.20407L9.13627 7.34179L9.1116 7.39476C8.48419 8.29171 8.15285 9.34403 8.15638 10.4493C8.15638 10.7565 8.18458 11.0602 8.24097 11.3604L8.174 11.4275C6.93328 12.5999 5.84059 13.8782 4.88889 15.2377C1.81527 19.3693 0 24.4968 0 30.0444C0 43.7846 13.2145 60.0003 24.4973 60.0003C36.9716 60.0003 49.6573 43.7846 49.6573 30.0444C49.6573 23.6846 47.271 17.8827 43.3479 13.4827Z" fill="white"/>
<path d="M41.8288 13.2282C41.4939 12.6809 39.876 11.2966 39.7773 11.2119C40.5916 11.4802 41.6772 12.3631 42.0544 12.8115C42.146 12.6562 42.2694 12.2606 42.3046 12.1088C42.5549 10.9753 42.2376 9.80994 41.4622 8.94478C41.4587 8.93418 41.4587 8.93065 41.4516 8.92712C40.8876 8.19614 40.3378 7.46164 39.7879 6.72713C40.4823 6.81188 41.434 6.92841 41.434 6.92841C41.501 6.93901 41.5715 6.91782 41.6208 6.86132C42.0191 6.3846 42.4209 5.90434 42.8192 5.43115C43.4326 5.89375 44.1199 5.87609 44.497 5.45587C44.913 4.99327 44.8143 4.23051 44.1657 3.65138C43.5242 3.06872 42.7276 3.02635 42.3117 3.48895C41.9098 3.94095 42.0226 4.70371 42.6359 5.2793C42.2235 5.68893 41.8111 6.0915 41.3987 6.4976C40.9546 6.40578 39.1711 6.04559 39.1711 6.04559C38.9138 5.98203 38.7058 6.30338 38.875 6.51525C39.164 6.95313 39.446 7.38395 39.728 7.82183C38.2722 7.34157 36.961 7.75473 36.2243 8.71524C32.9075 6.81188 29.0655 5.72425 24.9661 5.72425C22.0547 5.72425 19.2771 6.27513 16.7216 7.27448C16.0731 6.35282 14.9099 5.81959 13.4753 5.9785C13.1651 6.01381 12.8726 6.07384 12.5941 6.16566C12.7492 5.94319 12.9043 5.72425 13.0594 5.49824C13.2039 5.32874 13.0981 5.04624 12.8726 5.01799L10.5145 4.67546C10.0915 4.01157 9.665 3.35123 9.24555 2.68734C9.80599 2.32362 10.021 1.74096 9.77779 1.31721C9.52048 0.872266 8.86839 0.766327 8.2445 1.12652C7.62062 1.48671 7.4056 2.08703 7.65939 2.5355C7.9026 2.96278 8.49477 3.08285 9.08693 2.77916C9.46056 3.51013 9.84124 4.24464 10.2078 4.97561C10.236 5.02505 10.2783 5.06037 10.3382 5.07096H10.3523L12.2804 5.50178C11.72 6.18331 11.1384 6.84719 10.6026 7.54286C10.6026 7.54639 10.5991 7.55345 10.5991 7.56051C10.095 8.22439 9.81304 9.04012 9.81656 9.89469C9.81656 10.1772 9.85534 10.4526 9.91878 10.7104C11.512 9.57334 12.7915 9.28378 12.7915 9.28378C10.874 10.6151 9.40064 11.9464 9.40064 11.9464L9.38654 11.9358C4.99817 16.0815 2.25235 21.9611 2.25235 28.4834C2.25235 46.1539 18.4171 57.3092 24.6242 57.3092C31.7866 57.3092 47.6905 45.716 47.6905 28.4834C47.6905 22.6144 45.4769 17.2645 41.8358 13.2282H41.8288Z" fill="#4C1D6D"/>
<path d="M38.1876 26.0785C38.1876 30.2808 35.9529 33.692 33.1895 33.692C30.426 33.692 28.1913 30.2808 28.1913 26.0785C28.1913 21.8763 30.426 18.4686 33.1895 18.4686C35.9529 18.4686 38.1876 21.8763 38.1876 26.0785Z" fill="white"/>
<path d="M22.7138 26.1597C22.7138 30.7433 20.1865 34.4582 17.0635 34.4582C13.9406 34.4582 11.4168 30.7433 11.4168 26.1597C11.4168 21.5761 13.9441 17.8612 17.0635 17.8612C20.183 17.8612 22.7138 21.5761 22.7138 26.1597Z" fill="white"/>
<path d="M38.2017 18.3485C37.3769 17.2468 36.175 16.3604 34.8179 16.138C34.0813 16.0426 33.3411 16.0426 32.5973 16.0214C32.2871 16.0214 31.9699 16.0461 31.6209 16.0073C31.5822 16.0073 31.5646 15.9473 31.5998 15.9261C33.3199 14.5524 35.7238 15.2657 37.1514 16.7065C37.6131 17.1832 38.0079 17.7164 38.2758 18.3097C38.2969 18.3556 38.2264 18.3944 38.1982 18.3485H38.2017Z" fill="white"/>
<path d="M10.659 17.3174C11.1313 16.0179 12.0759 14.8561 13.2532 14.1251C14.4904 13.3659 15.9849 12.9633 17.3913 13.4895C17.7755 13.6237 18.1386 13.8179 18.477 14.0369C18.5016 14.0545 18.5087 14.0863 18.4911 14.111C18.0892 14.2311 17.6627 14.1781 17.2856 14.2064C17.0177 14.2346 16.7322 14.2452 16.4643 14.2523C15.8545 14.3476 15.2271 14.337 14.6244 14.4641C13.0065 14.7961 11.6283 15.9614 10.7506 17.3598C10.7259 17.4163 10.6308 17.3774 10.6554 17.3174H10.659Z" fill="white"/>
</g>
<defs>
<clipPath id="clip0_48_518">
<rect width="250" height="60" fill="white"/>
</clipPath>
</defs>
</svg>
